HIERARCHY
ROOT Hips
{
	OFFSET 0.000000 0.000000 0.000000
	CHANNELS 6 Xposition Yposition Zposition Xrotation Yrotation Zrotation
	JOINT LeftUpLeg_virtual
	{
		OFFSET 0.000000 0.000000 0.000000
		CHANNELS 3 Xrotation Yrotation Zrotation
		JOINT LeftUpLeg
		{
			OFFSET 10.205400 -3.823500 0.155100
			CHANNELS 3 Xrotation Yrotation Zrotation
			JOINT LeftLeg
			{
				OFFSET 0.708757 -12.982077 0.567790
				CHANNELS 3 Xrotation Yrotation Zrotation
				JOINT LeftFoot
				{
					OFFSET -0.708756 -10.717838 -2.184338
					CHANNELS 3 Xrotation Yrotation Zrotation
					JOINT LeftToeBase
					{
						OFFSET 0.108149 -7.191104 7.560241
						CHANNELS 3 Xrotation Yrotation Zrotation
						JOINT LeftToe_End
						{
							OFFSET 0.070230 0.081724 4.490308
							CHANNELS 3 Xrotation Yrotation Zrotation
							End Site
							{
								OFFSET 0 0 0
							}
						}
					}
				}
			}
		}
	}
	JOINT RightUpLeg_virtual
	{
		OFFSET 0.000000 0.000000 0.000000
		CHANNELS 3 Xrotation Yrotation Zrotation
		JOINT RightUpLeg
		{
			OFFSET -10.205400 -3.823500 0.005500
			CHANNELS 3 Xrotation Yrotation Zrotation
			JOINT RightLeg
			{
				OFFSET -0.708756 -12.982134 0.610632
				CHANNELS 3 Xrotation Yrotation Zrotation
				JOINT RightFoot
				{
					OFFSET 0.708754 -10.717769 -1.945823
					CHANNELS 3 Xrotation Yrotation Zrotation
					JOINT RightToeBase
					{
						OFFSET -0.108140 -7.191069 7.372968
						CHANNELS 3 Xrotation Yrotation Zrotation
						JOINT RightToe_End
						{
							OFFSET -0.070227 0.081735 4.479403
							CHANNELS 3 Xrotation Yrotation Zrotation
							End Site
							{
								OFFSET 0 0 0
							}
						}
					}
				}
			}
		}
	}
	JOINT Spine_virtual
	{
		OFFSET 0.000000 0.000000 0.000000
		CHANNELS 3 Xrotation Yrotation Zrotation
		JOINT Spine
		{
			OFFSET 0.000000 6.876099 0.125700
			CHANNELS 3 Xrotation Yrotation Zrotation
			JOINT Spine1
			{
				OFFSET 0.000000 5.730043 0.104720
				CHANNELS 3 Xrotation Yrotation Zrotation
				JOINT Spine1_split
				{
					OFFSET 0.000000 5.730043 0.104720
					CHANNELS 3 Xrotation Yrotation Zrotation
					JOINT Spine2
					{
						OFFSET 0.000000 5.730043 0.104720
						CHANNELS 3 Xrotation Yrotation Zrotation
						JOINT Neck_virtual
						{
							OFFSET 0.000000 0.000000 0.000000
							CHANNELS 3 Xrotation Yrotation Zrotation
							JOINT Neck
							{
								OFFSET 0.000000 10.314075 0.188496
								CHANNELS 3 Xrotation Yrotation Zrotation
								JOINT Head
								{
									OFFSET 0.000000 7.643700 -2.377400
									CHANNELS 3 Xrotation Yrotation Zrotation
									JOINT HeadTop_End
									{
										OFFSET 0.000000 43.788605 -13.619600
										CHANNELS 3 Xrotation Yrotation Zrotation
										End Site
										{
											OFFSET 0 0 0
										}
									}
								}
							}
						}
						JOINT LeftShoulder_virtual
						{
							OFFSET 0.000000 0.000000 0.000000
							CHANNELS 3 Xrotation Yrotation Zrotation
							JOINT LeftShoulder
							{
								OFFSET 2.196100 4.412489 0.087492
								CHANNELS 3 Xrotation Yrotation Zrotation
								JOINT LeftShoulder_split
								{
									OFFSET 2.196100 4.412489 0.087492
									CHANNELS 3 Xrotation Yrotation Zrotation
									JOINT LeftArm
									{
										OFFSET 8.771219 -2.981674 -0.026999
										CHANNELS 3 Xrotation Yrotation Zrotation
										JOINT LeftForeArm
										{
											OFFSET 8.512804 0.000000 -0.000000
											CHANNELS 3 Xrotation Yrotation Zrotation
											JOINT LeftHand
											{
												OFFSET 18.484802 0.000000 -0.000000
												CHANNELS 3 Xrotation Yrotation Zrotation
												End Site
												{
													OFFSET 0 0 0
												}
											}
										}
									}
								}
							}
						}
						JOINT RightShoulder_virtual
						{
							OFFSET 0.000000 0.000000 0.000000
							CHANNELS 3 Xrotation Yrotation Zrotation
							JOINT RightShoulder
							{
								OFFSET -2.196100 4.412496 0.070690
								CHANNELS 3 Xrotation Yrotation Zrotation
								JOINT RightShoulder_split
								{
									OFFSET -2.196100 4.412496 0.070690
									CHANNELS 3 Xrotation Yrotation Zrotation
									JOINT RightArm
									{
										OFFSET -8.771282 -2.981682 -0.094208
										CHANNELS 3 Xrotation Yrotation Zrotation
										JOINT RightForeArm
										{
											OFFSET -8.494598 0.000000 0.000000
											CHANNELS 3 Xrotation Yrotation Zrotation
											JOINT RightHand
											{
												OFFSET -18.483803 0.000000 0.000001
												CHANNELS 3 Xrotation Yrotation Zrotation
												End Site
												{
													OFFSET 0 0 0
												}
											}
										}
									}
								}
							}
						}
					}
				}
			}
		}
	}
}
MOTION
Frames: 4
Frame Time: 0.03333333
0.851969 26.071913 1.300283 0.000000 0.000000 0.000000 29.011283 -58.194072 29.178449 -65.541621 20.201695 30.904711 51.572535 -21.884956 0.898804 -6.624025 4.746214 -12.452272 -5.221719 -5.938211 1.020304 0.000000 0.000000 0.000000 24.408787 -54.829074 26.288732 -37.193204 4.503009 -38.793784 56.879220 7.756581 -3.938007 -41.638192 -4.051895 29.017809 -0.041412 4.106710 -0.537431 0.000000 0.000000 0.000000 13.314703 -43.489317 17.904684 3.886615 10.438062 -0.640855 5.839116 8.838422 -4.091650 2.292208 -3.437962 2.033269 0.000000 0.000000 0.000000 -9.765958 8.508905 -2.725624 -20.694476 -9.124788 3.368236 3.400071 4.641085 -6.247939 0.000000 0.000000 0.000000 -8.093556 7.865121 -0.787291 2.095049 -24.466614 3.719035 -1.601482 2.636088 -4.164540 4.129315 20.799577 -59.667959 -34.410370 -59.841739 -33.919904 0.000000 0.000000 0.000000 -9.734781 8.313535 -1.731465 -0.705376 6.750485 3.066255 7.250458 3.715591 9.620315 15.512222 -10.948093 42.547970 -40.011429 54.622249 38.176096 0.000000 0.000000 0.000000 
0.487420 26.055243 1.227825 0.000000 0.000000 0.000000 30.901770 -58.104918 30.448901 -65.810594 20.376546 30.794123 51.924864 -22.735178 1.794378 -6.524185 3.963598 -13.446984 -5.216304 -6.077789 1.749125 0.000000 0.000000 0.000000 26.352734 -54.133095 27.413644 -37.760755 5.098121 -37.772818 58.314482 8.139189 -4.683016 -41.113818 -4.980144 31.063410 -1.406932 3.945595 -0.558774 0.000000 0.000000 0.000000 15.605381 -43.847233 19.922301 4.251164 8.923532 -0.191201 6.515467 7.422840 -3.755441 4.223604 -5.273354 3.432846 0.000000 0.000000 0.000000 -9.070506 7.403591 -2.348059 -20.381947 -7.823300 4.056917 2.729184 4.997030 -4.445198 0.000000 0.000000 0.000000 -7.717431 6.569651 -0.809061 1.869292 -23.935963 3.096752 -0.521278 -1.566106 -2.900851 8.226001 24.017640 -58.094884 -28.902454 -54.898697 -28.430195 0.000000 0.000000 0.000000 -9.792356 7.111718 -1.479773 -0.479343 7.061360 4.430868 5.368952 1.859606 9.014869 13.976723 -13.773829 43.802898 -47.866000 59.548540 45.493554 0.000000 0.000000 0.000000 
-0.224810 26.066576 1.224550 0.000000 0.000000 0.000000 33.261983 -56.832249 32.315599 -66.394302 20.102577 30.188859 51.713302 -23.022846 2.510161 -6.587854 3.872237 -14.550509 -5.642946 -6.187671 2.424648 0.000000 0.000000 0.000000 29.272548 -52.642109 29.550810 -38.309192 5.826543 -36.607027 59.355566 7.810205 -5.611477 -42.608851 -6.925388 31.519144 -0.197725 3.920372 -0.218846 0.000000 0.000000 0.000000 19.888049 -43.433006 23.344994 5.057110 6.052139 0.592900 7.768722 4.100233 -3.419802 4.080987 -4.439169 3.903824 0.000000 0.000000 0.000000 -7.804328 4.394997 -2.193036 -19.272422 -6.524896 5.648632 0.553527 5.051931 -1.158614 0.000000 0.000000 0.000000 -6.514368 3.470141 -1.234445 2.021176 -22.493044 3.015968 1.140022 -6.360667 -0.642666 10.682465 28.207573 -55.598215 -20.980473 -48.467726 -20.787484 0.000000 0.000000 0.000000 -8.903881 3.916832 -1.753888 -0.488497 6.732877 6.585741 5.246832 1.583677 9.177279 9.775865 -15.974749 42.716283 -70.280700 65.665261 67.956148 0.000000 0.000000 0.000000 
-1.115831 26.091568 1.283627 0.000000 0.000000 0.000000 35.717494 -54.534020 34.419294 -66.914107 19.611841 29.104689 50.801745 -22.566720 2.879956 -6.759571 4.486864 -15.162576 -6.432751 -6.234587 2.757504 0.000000 0.000000 0.000000 32.254014 -50.501357 32.092965 -39.068197 6.544469 -35.585487 59.916011 7.032230 -6.660961 -45.251523 -9.520000 31.124595 2.652510 4.100415 0.288566 0.000000 0.000000 0.000000 25.340811 -42.014266 27.304603 6.443181 2.371960 1.448324 9.626300 -0.305174 -3.079222 2.166676 -2.366974 3.564742 0.000000 0.000000 0.000000 -5.955819 0.171721 -2.286760 -17.625476 -5.143747 7.193487 -2.731870 4.249499 2.877442 0.000000 0.000000 0.000000 -4.366357 -0.767025 -1.857977 2.606383 -20.811750 3.515329 2.306457 -9.884067 1.045075 9.450082 32.367488 -51.002996 -13.386520 -41.050185 -13.528408 0.000000 0.000000 0.000000 -6.905408 -0.449824 -2.281440 -0.572359 6.256289 9.542865 6.340787 2.317041 9.509379 4.332958 -16.521198 39.056852 -96.241224 66.472890 94.502777 0.000000 0.000000 0.000000 
